<mxfile host="app.diagrams.net" modified="2024-03-08T23:14:36.290Z" agent="Mozilla/5.0 (Windows NT 10.0; Win64; x64) AppleWebKit/537.36 (KHTML, like Gecko) Chrome/122.0.0.0 Safari/537.36" etag="DRwtgyKvdowGRll_5ZyD" version="23.1.6" type="github">
  <diagram name="Page-1" id="fscKUlE55EIPMowpRUfn">
    <mxGraphModel dx="1290" dy="522" grid="1" gridSize="10" guides="1" tooltips="1" connect="1" arrows="1" fold="1" page="1" pageScale="1" pageWidth="850" pageHeight="1100" math="0" shadow="0">
      <root>
        <mxCell id="0" />
        <mxCell id="1" parent="0" />
        <mxCell id="jjaBcMODo1sXCqKxSagP-1" value="Progam.cs&lt;br&gt;&lt;br&gt;Simply call the journal app class and run the program&lt;br&gt;&lt;br&gt;JournalApp()" style="html=1;whiteSpace=wrap;" vertex="1" parent="1">
          <mxGeometry x="80" y="60" width="110" height="140" as="geometry" />
        </mxCell>
        <mxCell id="jjaBcMODo1sXCqKxSagP-22" style="edgeStyle=orthogonalEdgeStyle;rounded=0;orthogonalLoop=1;jettySize=auto;html=1;exitX=0.25;exitY=1;exitDx=0;exitDy=0;" edge="1" parent="1" source="jjaBcMODo1sXCqKxSagP-2" target="jjaBcMODo1sXCqKxSagP-6">
          <mxGeometry relative="1" as="geometry" />
        </mxCell>
        <mxCell id="jjaBcMODo1sXCqKxSagP-23" style="edgeStyle=orthogonalEdgeStyle;rounded=0;orthogonalLoop=1;jettySize=auto;html=1;exitX=0.5;exitY=1;exitDx=0;exitDy=0;entryX=0.25;entryY=0;entryDx=0;entryDy=0;" edge="1" parent="1" source="jjaBcMODo1sXCqKxSagP-2" target="jjaBcMODo1sXCqKxSagP-13">
          <mxGeometry relative="1" as="geometry" />
        </mxCell>
        <mxCell id="jjaBcMODo1sXCqKxSagP-2" value="&lt;p style=&quot;margin:0px;margin-top:4px;text-align:center;&quot;&gt;&lt;b&gt;Class JournalApp&lt;/b&gt;&lt;/p&gt;&lt;hr size=&quot;1&quot;&gt;&lt;div style=&quot;height:2px;&quot;&gt;&lt;/div&gt;&lt;hr size=&quot;1&quot;&gt;&lt;div style=&quot;height:2px;&quot;&gt;Contains a Menu in which the user can choose what they would like to do. The Menu calls a specific class to run it&#39;s task based on the user&#39;s choice Menu Options: Write, Inspiration, prompt, load, quit.&amp;nbsp;&lt;/div&gt;" style="verticalAlign=top;align=left;overflow=fill;html=1;whiteSpace=wrap;" vertex="1" parent="1">
          <mxGeometry x="260" y="70" width="180" height="160" as="geometry" />
        </mxCell>
        <mxCell id="jjaBcMODo1sXCqKxSagP-30" style="edgeStyle=orthogonalEdgeStyle;rounded=0;orthogonalLoop=1;jettySize=auto;html=1;entryX=1;entryY=0.75;entryDx=0;entryDy=0;" edge="1" parent="1" source="jjaBcMODo1sXCqKxSagP-3" target="jjaBcMODo1sXCqKxSagP-2">
          <mxGeometry relative="1" as="geometry" />
        </mxCell>
        <mxCell id="jjaBcMODo1sXCqKxSagP-3" value="&lt;p style=&quot;margin:0px;margin-top:4px;text-align:center;&quot;&gt;&lt;b&gt;Class Write&amp;nbsp;&lt;/b&gt;&lt;/p&gt;&lt;hr size=&quot;1&quot;&gt;&lt;div style=&quot;height:2px;&quot;&gt;Allows The user to write to a txt file located in the folder. Get the date time from the computer and stamps the date time at the start of each entry.&amp;nbsp;&amp;nbsp;&lt;br&gt;&lt;/div&gt;" style="verticalAlign=top;align=left;overflow=fill;html=1;whiteSpace=wrap;" vertex="1" parent="1">
          <mxGeometry x="600" y="130" width="140" height="130" as="geometry" />
        </mxCell>
        <mxCell id="jjaBcMODo1sXCqKxSagP-6" value="Class Inspiration" style="swimlane;fontStyle=1;align=center;verticalAlign=top;childLayout=stackLayout;horizontal=1;startSize=26;horizontalStack=0;resizeParent=1;resizeParentMax=0;resizeLast=0;collapsible=1;marginBottom=0;whiteSpace=wrap;html=1;" vertex="1" parent="1">
          <mxGeometry x="80" y="280" width="160" height="160" as="geometry" />
        </mxCell>
        <mxCell id="jjaBcMODo1sXCqKxSagP-7" value="+&amp;nbsp; List of Insptiartion quotes" style="text;strokeColor=none;fillColor=none;align=left;verticalAlign=top;spacingLeft=4;spacingRight=4;overflow=hidden;rotatable=0;points=[[0,0.5],[1,0.5]];portConstraint=eastwest;whiteSpace=wrap;html=1;" vertex="1" parent="jjaBcMODo1sXCqKxSagP-6">
          <mxGeometry y="26" width="160" height="26" as="geometry" />
        </mxCell>
        <mxCell id="jjaBcMODo1sXCqKxSagP-8" value="" style="line;strokeWidth=1;fillColor=none;align=left;verticalAlign=middle;spacingTop=-1;spacingLeft=3;spacingRight=3;rotatable=0;labelPosition=right;points=[];portConstraint=eastwest;strokeColor=inherit;" vertex="1" parent="jjaBcMODo1sXCqKxSagP-6">
          <mxGeometry y="52" width="160" height="8" as="geometry" />
        </mxCell>
        <mxCell id="jjaBcMODo1sXCqKxSagP-9" value="+GetRandomQuote():&lt;br&gt;gets the number of list items and randomly returns a string from the list using the number pulled.&amp;nbsp;&lt;br&gt;Prints Prompt to Console&lt;br&gt;&lt;div&gt;&lt;br&gt;&lt;/div&gt;" style="text;strokeColor=none;fillColor=none;align=left;verticalAlign=top;spacingLeft=4;spacingRight=4;overflow=hidden;rotatable=0;points=[[0,0.5],[1,0.5]];portConstraint=eastwest;whiteSpace=wrap;html=1;" vertex="1" parent="jjaBcMODo1sXCqKxSagP-6">
          <mxGeometry y="60" width="160" height="100" as="geometry" />
        </mxCell>
        <mxCell id="jjaBcMODo1sXCqKxSagP-13" value="&lt;p style=&quot;margin:0px;margin-top:4px;text-align:center;&quot;&gt;&lt;b&gt;Class Prompt&lt;/b&gt;&lt;/p&gt;&lt;hr size=&quot;1&quot;&gt;&lt;p style=&quot;margin:0px;margin-left:4px;&quot;&gt;+ List of Prompts&lt;/p&gt;&lt;hr size=&quot;1&quot;&gt;&lt;p style=&quot;margin:0px;margin-left:4px;&quot;&gt;+ GetRandomPrompt():&lt;/p&gt;&lt;p style=&quot;margin:0px;margin-left:4px;&quot;&gt;gets the number of list items and randomly returns a string from the list using the number pulled.&amp;nbsp;&lt;/p&gt;&lt;p style=&quot;margin:0px;margin-left:4px;&quot;&gt;&lt;br&gt;&lt;/p&gt;&lt;p style=&quot;margin:0px;margin-left:4px;&quot;&gt;Prints (prompt to console.&lt;/p&gt;" style="verticalAlign=top;align=left;overflow=fill;html=1;whiteSpace=wrap;" vertex="1" parent="1">
          <mxGeometry x="280" y="320" width="170" height="170" as="geometry" />
        </mxCell>
        <mxCell id="jjaBcMODo1sXCqKxSagP-14" value="&lt;p style=&quot;margin:0px;margin-top:4px;text-align:center;&quot;&gt;&lt;b&gt;Class Load&lt;/b&gt;&lt;/p&gt;&lt;hr size=&quot;1&quot;&gt;&lt;p style=&quot;margin:0px;margin-left:4px;&quot;&gt;+&amp;nbsp;&lt;/p&gt;&lt;hr size=&quot;1&quot;&gt;&lt;p style=&quot;margin:0px;margin-left:4px;&quot;&gt;Grabs the txt file and displays the txt file.&amp;nbsp;&lt;/p&gt;" style="verticalAlign=top;align=left;overflow=fill;html=1;whiteSpace=wrap;" vertex="1" parent="1">
          <mxGeometry x="480" y="280" width="160" height="120" as="geometry" />
        </mxCell>
        <mxCell id="jjaBcMODo1sXCqKxSagP-15" value="" style="endArrow=none;html=1;edgeStyle=orthogonalEdgeStyle;rounded=0;" edge="1" parent="1">
          <mxGeometry relative="1" as="geometry">
            <mxPoint x="440" y="220" as="sourcePoint" />
            <mxPoint x="600" y="220" as="targetPoint" />
          </mxGeometry>
        </mxCell>
        <mxCell id="jjaBcMODo1sXCqKxSagP-16" value="parent" style="edgeLabel;resizable=0;html=1;align=left;verticalAlign=bottom;" connectable="0" vertex="1" parent="jjaBcMODo1sXCqKxSagP-15">
          <mxGeometry x="-1" relative="1" as="geometry" />
        </mxCell>
        <mxCell id="jjaBcMODo1sXCqKxSagP-17" value="child" style="edgeLabel;resizable=0;html=1;align=right;verticalAlign=bottom;" connectable="0" vertex="1" parent="jjaBcMODo1sXCqKxSagP-15">
          <mxGeometry x="1" relative="1" as="geometry" />
        </mxCell>
        <mxCell id="jjaBcMODo1sXCqKxSagP-24" style="edgeStyle=orthogonalEdgeStyle;rounded=0;orthogonalLoop=1;jettySize=auto;html=1;exitX=0.75;exitY=1;exitDx=0;exitDy=0;entryX=0.442;entryY=-0.017;entryDx=0;entryDy=0;entryPerimeter=0;" edge="1" parent="1" source="jjaBcMODo1sXCqKxSagP-2" target="jjaBcMODo1sXCqKxSagP-14">
          <mxGeometry relative="1" as="geometry" />
        </mxCell>
        <mxCell id="jjaBcMODo1sXCqKxSagP-29" style="edgeStyle=orthogonalEdgeStyle;rounded=0;orthogonalLoop=1;jettySize=auto;html=1;exitX=1;exitY=0.5;exitDx=0;exitDy=0;entryX=-0.026;entryY=0.178;entryDx=0;entryDy=0;entryPerimeter=0;" edge="1" parent="1" source="jjaBcMODo1sXCqKxSagP-2" target="jjaBcMODo1sXCqKxSagP-3">
          <mxGeometry relative="1" as="geometry" />
        </mxCell>
        <mxCell id="jjaBcMODo1sXCqKxSagP-31" style="edgeStyle=orthogonalEdgeStyle;rounded=0;orthogonalLoop=1;jettySize=auto;html=1;exitX=1;exitY=0.5;exitDx=0;exitDy=0;entryX=0.042;entryY=1.005;entryDx=0;entryDy=0;entryPerimeter=0;" edge="1" parent="1" source="jjaBcMODo1sXCqKxSagP-9" target="jjaBcMODo1sXCqKxSagP-2">
          <mxGeometry relative="1" as="geometry" />
        </mxCell>
        <mxCell id="jjaBcMODo1sXCqKxSagP-32" style="edgeStyle=orthogonalEdgeStyle;rounded=0;orthogonalLoop=1;jettySize=auto;html=1;exitX=0.75;exitY=0;exitDx=0;exitDy=0;entryX=0.611;entryY=1.025;entryDx=0;entryDy=0;entryPerimeter=0;" edge="1" parent="1" source="jjaBcMODo1sXCqKxSagP-13" target="jjaBcMODo1sXCqKxSagP-2">
          <mxGeometry relative="1" as="geometry" />
        </mxCell>
        <mxCell id="jjaBcMODo1sXCqKxSagP-33" style="edgeStyle=orthogonalEdgeStyle;rounded=0;orthogonalLoop=1;jettySize=auto;html=1;exitX=0;exitY=0.25;exitDx=0;exitDy=0;entryX=0.949;entryY=1.02;entryDx=0;entryDy=0;entryPerimeter=0;" edge="1" parent="1" source="jjaBcMODo1sXCqKxSagP-14" target="jjaBcMODo1sXCqKxSagP-2">
          <mxGeometry relative="1" as="geometry" />
        </mxCell>
        <mxCell id="jjaBcMODo1sXCqKxSagP-34" style="edgeStyle=orthogonalEdgeStyle;rounded=0;orthogonalLoop=1;jettySize=auto;html=1;exitX=1;exitY=0.75;exitDx=0;exitDy=0;entryX=0.007;entryY=0.59;entryDx=0;entryDy=0;entryPerimeter=0;" edge="1" parent="1" source="jjaBcMODo1sXCqKxSagP-1" target="jjaBcMODo1sXCqKxSagP-2">
          <mxGeometry relative="1" as="geometry" />
        </mxCell>
        <mxCell id="jjaBcMODo1sXCqKxSagP-35" style="edgeStyle=orthogonalEdgeStyle;rounded=0;orthogonalLoop=1;jettySize=auto;html=1;exitX=0;exitY=0.25;exitDx=0;exitDy=0;entryX=1.029;entryY=0.369;entryDx=0;entryDy=0;entryPerimeter=0;" edge="1" parent="1" source="jjaBcMODo1sXCqKxSagP-2" target="jjaBcMODo1sXCqKxSagP-1">
          <mxGeometry relative="1" as="geometry" />
        </mxCell>
      </root>
    </mxGraphModel>
  </diagram>
</mxfile>
